# xmcd
#
# Track frame offsets:
#	150
#	12347
#	27635
#	41567
#	53968
#	66771
#	81263
#	92765
#	107245
#	119097
#	131306
#	143077
#	165294
#	180598
#	192890
#	202924
#	214564
#
# Disc length: 3026 seconds
#
# Revision: 0
# Processed by: cddbd v1.5.2PL0 Copyright (c) Steve Scherf et al.
# Submitted via: EZCDAudioConverter 2.2.0.1
#
DISCID=ea0bd011
DTITLE=Various Artist - Blues Christmas
DYEAR=2014
DGENRE=Holiday/Christmas
TTITLE0=Leadbelly - The Christmas Song
TTITLE1=Sonny Boy Williamson I - Christmas Morning Blues
TTITLE2=Boll Weavil - Christmas Time Blues
TTITLE3=Black Ace - Christmas Time Blues (Beggin' Santa Claus)
TTITLE4=Bertha "Chippie" Hill - Christmas Man Blues
TTITLE5=Bo Carter - Santa Claus
TTITLE6=Sonny Boy Williamson II - Sonny Boy's Christmas Blues
TTITLE7=Lightnin' Hopkins - Happy New Year
TTITLE8=Ralph Willis - Christmas Blues
TTITLE9=Harmon Ray - Xmas Blues
TTITLE10=Willie Blackwell - Junior's a Jap Girl's Christmas for His Santa Clau
TTITLE10=s
TTITLE11=Lonnie Johnson - Happy New Year, Darling
TTITLE12=Tampa Red - Christmas and New Year Blues
TTITLE13=Johnny Otis - Happy New Year, Baby
TTITLE14=Sugar Chile Robinson - Christmas Boogie
TTITLE15=The Sons Of Heaven - When Was Jesus Born
TTITLE16=Julia Lee and Her Boy Friends - Christmas Spirit
EXTD=
EXTT0=
EXTT1=
EXTT2=
EXTT3=
EXTT4=
EXTT5=
EXTT6=
EXTT7=
EXTT8=
EXTT9=
EXTT10=
EXTT11=
EXTT12=
EXTT13=
EXTT14=
EXTT15=
EXTT16=
PLAYORDER=
